<svg width="62" height="24" viewBox="0 0 62 24" fill="none" xmlns="http://www.w3.org/2000/svg">
<path d="M38.1431 13.1056V13.1665L38.1226 13.3086C38.1256 13.3373 38.1183 13.3661 38.102 13.3899L37.4898 16.9404C37.434 17.3214 37.2428 17.67 36.9509 17.923C36.6589 18.1761 36.2855 18.3168 35.8982 18.3198H34.8369C34.4096 18.3187 34.0001 18.1495 33.698 17.8492C33.3959 17.5488 33.2257 17.1417 33.2246 16.7169V16.6765H33.2041L33.8368 12.9435C33.9999 11.9901 34.592 11.4424 35.4691 11.4424H36.7342L36.7547 11.4628C37.1359 11.5192 37.4838 11.7102 37.7349 12.0008C37.986 12.2914 38.1235 12.6621 38.1221 13.0452C38.1299 13.0532 38.1358 13.0628 38.1393 13.0733C38.1429 13.0839 38.144 13.0951 38.1427 13.1061L38.1431 13.1056ZM40.2672 17.6503L40.8999 13.6538C40.9371 13.4729 40.9644 13.29 40.9817 13.1061V13.0657C40.9817 12.9644 41.0023 12.8626 41.0023 12.7614C41.0023 11.7283 40.5895 10.7376 39.8547 10.0071C39.12 9.27659 38.1234 8.86621 37.0843 8.86621H35.0847C33.1257 8.86621 31.4322 10.3269 31.1667 12.254V12.2944L31.1261 12.3348L30.4297 16.6156L30.4502 16.6361V16.6969C30.4338 16.8179 30.4269 16.94 30.4297 17.0621C30.4297 19.1923 32.1844 20.9169 34.307 20.9169H36.429C37.3373 20.9176 38.217 20.6011 38.9145 20.0226C39.612 19.4442 40.0829 18.6405 40.2451 17.752L40.2657 17.6508" fill="white"/>
<path d="M20.7366 12.5377C20.696 12.9029 20.696 12.9842 20.6142 12.9842C20.553 13.1059 20.41 13.2276 20.1857 13.2885C19.7958 13.3693 16.3084 14.3027 16.2697 14.3027C15.8005 14.4449 15.6369 14.6679 15.6369 14.6679L16.0248 12.6185C16.0248 12.6185 16.1678 11.4417 17.7389 11.4417H19.7591C20.0652 11.4417 20.3101 11.543 20.4732 11.7256C20.7161 11.9695 20.7572 12.3142 20.7366 12.5377ZM23.4097 11.8478C23.4102 11.448 23.3314 11.0521 23.1777 10.6826C23.0241 10.3132 22.7986 9.97753 22.5143 9.69485C22.23 9.41217 21.8923 9.18804 21.5207 9.03529C21.1491 8.88254 20.7509 8.80418 20.3488 8.80469H17.3471L17.1635 8.82514C15.4288 8.94686 13.9395 10.2045 13.5722 11.8887V11.9291C13.3067 13.6941 12.7969 16.9402 12.7763 17.0415C12.6945 17.9544 13.0026 18.8673 13.674 19.5977C14.0611 20.0166 14.5308 20.3517 15.0539 20.5821C15.577 20.8125 16.1422 20.9332 16.7144 20.9366H19.8571C21.0202 20.9366 21.9997 20.0846 22.2039 18.9282L22.4894 17.1023H20.7366C20.2469 17.1023 19.8184 17.3662 19.6553 17.8327C19.616 17.9648 19.5355 18.0811 19.4255 18.1649C19.3155 18.2488 19.1816 18.2957 19.0431 18.2991H16.6125C15.9185 18.2587 15.3475 17.7918 15.4087 17.2645C15.4494 16.8993 15.6942 16.7571 16.3676 16.5546L21.2058 15.2765C21.2264 15.2765 22.9811 14.7492 23.1648 13.4102C23.1854 13.2276 23.2054 13.1668 23.226 13.0246C23.2466 12.9233 23.2667 12.7812 23.3078 12.5377C23.3815 12.3153 23.4159 12.0819 23.4097 11.8478Z" fill="white"/>
<path d="M59.3245 12.5377C59.2839 12.9029 59.2839 12.9842 59.2021 12.9842C59.1409 13.1059 58.9979 13.2276 58.7736 13.2885C58.3857 13.3698 54.8962 14.3027 54.8556 14.3027C54.3864 14.4449 54.2228 14.6679 54.2228 14.6679L54.6107 12.619C54.6107 12.619 54.7537 11.4422 56.3248 11.4422H58.345C58.6511 11.4422 58.896 11.5435 59.0591 11.7261C59.2834 11.9695 59.3446 12.3142 59.3245 12.5377ZM61.9975 11.8478C61.9981 11.448 61.9192 11.0521 61.7656 10.6826C61.612 10.3132 61.3865 9.97753 61.1022 9.69485C60.8178 9.41217 60.4802 9.18804 60.1086 9.03529C59.737 8.88254 59.3387 8.80418 58.9366 8.80469H55.9389L55.7758 8.82514C54.0412 8.94686 52.5518 10.2045 52.1845 11.8887V11.9291C51.9191 13.6941 51.4093 16.9402 51.3887 17.0415C51.3069 17.9544 51.613 18.8673 52.2864 19.5977C52.6734 20.0166 53.1431 20.3517 53.6662 20.5821C54.1893 20.8125 54.7546 20.9332 55.3267 20.9366H58.1633V20.9162H58.4694C59.0324 20.9166 59.5768 20.7162 60.0037 20.3514C60.4306 19.9866 60.7116 19.4816 60.7957 18.9282L61.0812 17.1023H59.3265C59.0896 17.0995 58.8581 17.1731 58.6667 17.312C58.4754 17.451 58.3345 17.6478 58.2652 17.8731C58.2249 18.003 58.1436 18.1166 58.0334 18.197C57.9231 18.2774 57.7898 18.3204 57.653 18.3196H55.2249C54.5309 18.2792 53.9599 17.7923 54.0211 17.2445C54.0617 16.8794 54.3066 16.7372 54.98 16.5346L59.8162 15.2565C59.8368 15.2565 61.5915 14.7292 61.7752 13.3903C61.7958 13.2077 61.8159 13.1468 61.8364 13.0046C61.857 12.9034 61.8771 12.7612 61.9182 12.5177C61.9667 12.2977 61.9941 12.0735 62 11.8483" fill="white"/>
<path d="M50.9784 10.3262L51.2233 8.80469H49.1806C47.5483 8.86555 46.2828 11.3205 46.2828 11.3205L46.6295 9.37289H43.6504L41.7732 20.9366H44.7322L45.8547 14.2214C46.222 12.7403 47.5282 11.7056 49.0586 11.7056C49.1611 11.7023 49.2636 11.7092 49.3647 11.7261C49.7492 11.7243 50.1205 11.5866 50.4122 11.3375C50.7038 11.0884 50.8967 10.7443 50.9564 10.3666L50.977 10.3262" fill="white"/>
<path d="M7.88089 17.2039V17.2243C7.81357 17.5295 7.64326 17.8025 7.39825 17.9981C7.15325 18.1937 6.8483 18.3 6.53409 18.2994H4.55454C4.19189 18.2994 3.8441 18.1562 3.58767 17.9012C3.33124 17.6463 3.18717 17.3005 3.18717 16.94C3.18717 16.8996 4.10545 10.2452 4.10545 10.2452C4.34327 10.5315 4.64335 10.7604 4.98307 10.9147L7.75845 12.1928C7.96332 12.3146 8.13311 12.487 8.25142 12.6931C8.36973 12.8993 8.43255 13.1323 8.43381 13.3696C8.41128 13.39 8.43381 13.6739 7.88089 17.2039ZM11.5334 13.4913C11.9213 11.1786 9.90108 10.2252 9.8193 10.1843C9.69686 10.1235 6.43173 8.84537 5.47281 8.31807C4.49332 7.77031 4.7382 6.55307 4.75877 6.43135L5.12607 3.77388C5.26908 2.73923 5.12607 1.96847 4.71812 1.50154C4.35081 1.07551 3.84049 1.01465 3.59562 1.01465H2.57548L0.0655427 16.2705C-0.199899 17.8734 0.392202 18.9484 0.922596 19.5775C1.63664 20.4091 2.71849 20.9369 3.7592 20.9369H7.08554C9.06509 20.9369 10.7381 19.375 10.8811 17.3865C10.9629 16.8183 11.2077 15.378 11.5339 13.4913" fill="white"/>
<path d="M31.207 2.02889L31.6355 0H29.5315C28.8137 0.030728 28.1297 0.311979 27.5997 0.794339C27.0698 1.2767 26.7277 1.92931 26.6337 2.63751L26.6132 2.67792L23.1036 24H23.4915C25.0014 24 26.2669 22.9249 26.5118 21.4234L26.8585 19.6179L27.8992 12.9436C27.9188 12.6615 28.0458 12.3975 28.2543 12.2052C28.4629 12.013 28.7373 11.907 29.0217 11.909H29.4096L29.8788 8.805H28.5521L29.3685 3.9156C29.4091 3.48957 29.5115 3.00268 30.0624 2.92137L30.083 2.90092H30.1236C30.7564 2.81961 31.1237 2.77919 31.205 2.0284" fill="white"/>
</svg>
